<svg width="500" height="500" viewBox="0 0 500 500" xmlns="http://www.w3.org/2000/svg" role="img" aria-label="sumkar">
  <title>sumkar</title>
  <rect x="0" y="0" width="500" height="500" rx="48" fill="#FFFFFF"/>
  <g transform="translate(-35,14.4) scale(1.9)"><g fill="none" stroke-linecap="round" stroke-linejoin="round" stroke-width="8.5">
    <path d="M150,34 C146,46 140,58 116,70" stroke="#22323F"/>
    <path d="M150,34 C154,46 160,58 184,70" stroke="#22323F"/>
    <line x1="96" y1="86" x2="204" y2="86" stroke="#22323F"/>
    <line x1="108" y1="106" x2="192" y2="106" stroke="#25BDB0"/>
    <line x1="120" y1="126" x2="180" y2="126" stroke="#25BDB0"/>
    <line x1="132" y1="146" x2="168" y2="146" stroke="#25BDB0"/>
    <line x1="142" y1="166" x2="158" y2="166" stroke="#22323F"/>
  </g><path d="M80.04197371006012 216.60962176322937Q78.27219569683075 216.60962176322937 77.23823130130768 216.25310426950455Q76.2042669057846 215.89658677577972 75.60673403739929 215.7045636177063Q74.8091607093811 215.44541490077972 74.43453085422516 215.44541490077972Q74.09881913661957 215.44541490077972 73.92089968919754 215.5421050786972Q73.74298024177551 215.63879525661469 73.56304597854614 215.74421280622482Q73.38311171531677 215.84963035583496 73.0218859910965 215.84963035583496Q72.64859235286713 215.84963035583496 72.38338869810104 215.6582857966423Q72.11818504333496 215.46694123744965 72.11818504333496 215.1352801322937Q72.11818504333496 214.5283727645874 72.0772311091423 213.69517987966537Q72.03627717494965 212.86198699474335 71.97786849737167 211.99722516536713Q71.9194598197937 211.1324633359909 71.87850588560104 210.37713819742203Q71.83755195140839 209.62181305885315 71.83755195140839 209.17064118385315Q71.83755195140839 208.67650055885315 72.0873156785965 208.46165680885315Q72.3370794057846 208.24681305885315 72.64055407047272 208.24681305885315Q73.27301740646362 208.24681305885315 73.40192365646362 208.71946930885315Q73.53082990646362 209.19212555885315 73.74768847227097 209.8782788515091Q73.96454703807831 210.56443214416504 74.72453844547272 212.02265524864197Q75.2347766160965 212.95585787296295 76.04848945140839 213.57153457403183Q76.86220228672028 214.1872112751007 77.8343859910965 214.48533058166504Q78.80656969547272 214.78344988822937 79.7667064666748 214.78344988822937Q81.61972856521606 214.78344988822937 82.86043548583984 214.0227798819542Q84.10114240646362 213.26210987567902 84.10114240646362 211.81058883666992Q84.10114240646362 210.56451606750488 83.28744006156921 209.7689260840416Q82.4737377166748 208.9733361005783 81.15110194683075 208.34088325500488Q79.8284661769867 207.70843040943146 78.28689408302307 207.0061480998993Q76.85952985286713 206.32000529766083 75.57851612567902 205.4539177417755Q74.2975023984909 204.5878301858902 73.48511528968811 203.30145061016083Q72.67272818088531 202.01507103443146 72.67272818088531 200.0935661792755Q72.67272818088531 198.1854864358902 73.81476157903671 196.87358236312866Q74.95679497718811 195.56167829036713 76.67892748117447 194.88826102018356Q78.40105998516083 194.21484375 80.12793219089508 194.21484375Q82.16894781589508 194.21484375 83.19149142503738 194.66401129961014Q84.21403503417969 195.11317884922028 84.73905551433563 195.11317884922028Q85.21171176433563 195.11317884922028 85.28690707683563 194.86812335252762Q85.36210238933563 194.62306785583496 85.49100863933563 194.40419447422028Q85.61991488933563 194.16786634922028 85.8246950507164 194.06044447422028Q86.02947521209717 193.95302259922028 86.24701237678528 193.95302259922028Q86.56257593631744 193.95302259922028 86.80764192342758 194.14638197422028Q87.05270791053772 194.33974134922028 87.05270791053772 194.70497572422028Q87.05270791053772 194.89833509922028 87.02048134803772 195.714073240757Q86.98825478553772 196.5298113822937 86.98825478553772 197.50466752052307Q86.98825478553772 198.44189977645874 87.05069309473038 199.0911287665367Q87.11313140392303 199.74035775661469 87.11313140392303 200.07740569114685Q87.11313140392303 200.56484425067902 86.9002919793129 200.7548525929451Q86.68745255470276 200.94486093521118 86.41082811355591 200.94486093521118Q85.82536315917969 200.94486093521118 85.70988202095032 200.58499240875244Q85.35673654079437 199.7135285139084 84.78337097167969 198.66011554002762Q84.210005402565 197.60670256614685 83.15256279706955 196.83460128307343Q82.0951201915741 196.0625 80.24610674381256 196.0625Q79.15714764595032 196.0625 78.36357247829437 196.3887847661972Q77.56999731063843 196.7150695323944 77.14366084337234 197.32669562101364Q76.71732437610626 197.93832170963287 76.71732437610626 198.82724034786224Q76.71732437610626 200.29220747947693 78.18696826696396 201.26235538721085Q79.65661215782166 202.23250329494476 81.78225004673004 203.2060022354126Q83.522505402565 203.9767463207245 85.05664438009262 204.86096721887589Q86.59078335762024 205.74518811702728 87.54618042707443 206.9536999464035Q88.50157749652863 208.16221177577972 88.50157749652863 209.93604040145874Q88.50157749652863 212.97072410583496 86.28865540027618 214.79017293453217Q84.07573330402374 216.60962176322937 80.04197371006012 216.60962176322937Z M102.13469469547272 216.580078125Q100.49513816833496 216.580078125 99.04358565807343 216.0966796875Q97.59203314781189 215.61328125 96.69035750627518 214.23828125Q95.78868186473846 212.86328125 95.78868186473846 210.19921875V198.54393482208252Q95.78868186473846 197.62010669708252 95.37779581546783 197.20116138458252Q94.9669097661972 196.78221607208252 94.39489090442657 196.64256763458252Q93.82287204265594 196.50291919708252 93.28576266765594 196.45995044708252Q92.83459079265594 196.41698169708252 92.67345798015594 196.27733325958252Q92.51232516765594 196.13768482208252 92.51232516765594 195.66502857208252Q92.51232516765594 195.42870044708252 92.70568454265594 195.10643482208252Q92.89904391765594 194.78416919708252 93.24279391765594 194.78416919708252H99.54861533641815Q100.34353721141815 194.78416919708252 100.34353721141815 195.55760669708252V209.9896149635315Q100.34353721141815 210.68657338619232 100.5167589187622 211.5090450644493Q100.68998062610626 212.3315167427063 101.2687120437622 212.92368376255035Q101.84744346141815 213.5158507823944 103.04248821735382 213.5158507823944Q105.15196561813354 213.5158507823944 106.48466497659683 212.91697120666504Q107.81736433506012 212.31809163093567 108.87009871006012 211.20090413093567V198.54393482208252Q108.87009871006012 197.62010669708252 108.36253297328949 197.20988875627518Q107.85496723651886 196.79967081546783 107.11107337474823 196.66002237796783Q106.3671795129776 196.52037394046783 105.64477002620697 196.45995044708252Q105.19359815120697 196.41698169708252 105.03246533870697 196.27733325958252Q104.87133252620697 196.13768482208252 104.87133252620697 195.66502857208252Q104.87133252620697 195.42870044708252 105.06267708539963 195.10643482208252Q105.25402164459229 194.78416919708252 105.60180127620697 194.78416919708252H112.59512269496918Q113.39004456996918 194.78416919708252 113.39004456996918 195.55760669708252V211.43992567062378Q113.39004456996918 212.99619615077972 113.6646437048912 213.4923411011696Q113.93924283981323 213.98848605155945 114.28299283981323 213.98848605155945Q114.58377408981323 213.98848605155945 114.82346373796463 213.9475321173668Q115.06315338611603 213.90657818317413 115.31290662288666 213.81661105155945Q115.67814099788666 213.6971002817154 115.92319649457932 214.0999480485916Q116.16825199127197 214.50279581546783 116.16825199127197 214.85729849338531Q116.16825199127197 215.10571551322937 116.04337537288666 215.205078125Q115.78017604351044 215.45752477645874 114.61865210533142 215.99731707572937Q113.4571281671524 216.537109375 111.53556036949158 216.537109375Q110.69359815120697 216.537109375 110.15178054571152 216.13090008497238Q109.60996294021606 215.72469079494476 109.3179195523262 214.95930206775665Q109.02587616443634 214.19391334056854 108.93860244750977 213.12107276916504Q108.51292359828949 213.86095798015594 107.45211946964264 214.66796875Q106.39131534099579 215.47497951984406 104.99482047557831 216.02752882242203Q103.59832561016083 216.580078125 102.13469469547272 216.580078125Z M121.4022308588028 216.0Q121.0369964838028 216.0 120.8543792963028 215.677734375Q120.6717621088028 215.35546875 120.6717621088028 215.119140625Q120.6717621088028 214.41015625 121.3807464838028 214.32421875Q122.1756683588028 214.22485613822937 123.00415301322937 213.9516037106514Q123.83263766765594 213.67835128307343 123.83263766765594 212.98951506614685V199.28515625Q123.83263766765594 197.953125 123.25255954265594 197.46301400661469Q122.67248141765594 196.97290301322937 121.92052829265594 196.86951076984406Q121.16857516765594 196.76611852645874 120.63146579265594 196.61572790145874Q120.41662204265594 196.50830602645874 120.26623141765594 196.33643102645874Q120.11584079265594 196.16455602645874 120.11584079265594 195.75635290145874Q120.11584079265594 195.49854040145874 120.24474704265594 195.15674416224164Q120.37365329265594 194.8149479230245 120.63146579265594 194.79358565807343Q122.88066506385803 194.66467940807343 124.7122552394867 194.62439358234406Q126.54384541511536 194.58410775661469 127.493208527565 194.580078125Q127.665083527565 194.580078125 127.879927277565 194.751953125Q128.094771027565 194.923828125 128.137739777565 195.439453125V197.845703125Q128.53654742240906 197.43883621692657 129.65710693597794 196.57073384523392Q130.7776664495468 195.70263147354126 132.47225964069366 194.95873761177063Q134.16685283184052 194.21484375 136.24144172668457 194.21484375Q137.28747403621674 194.21484375 138.33954030275345 194.49212580919266Q139.39160656929016 194.76940786838531 140.23352682590485 195.5153165459633Q141.07544708251953 196.26122522354126 141.42592012882233 197.69798493385315Q141.90799283981323 197.2132397890091 143.0500367283821 196.38743805885315Q144.192080616951 195.5616363286972 145.87593162059784 194.8882400393486Q147.5597826242447 194.21484375 149.65049004554749 194.21484375Q151.11815059185028 194.21484375 152.31927126646042 194.63043802976608Q153.52039194107056 195.04603230953217 154.2454948425293 196.23733735282275Q154.97059774398804 197.42864239611333 154.97059774398804 199.74445033073425V212.28053069114685Q154.97059774398804 213.2915388207103 155.47614866495132 213.69172953866249Q155.9816995859146 214.09192025661469 156.6591255068779 214.16711556911469Q157.3365514278412 214.24231088161469 157.8736608028412 214.32421875Q158.2388951778412 214.3671875 158.4107701778412 214.5068359375Q158.5826451778412 214.646484375 158.5826451778412 215.119140625Q158.5826451778412 215.35546875 158.4000279903412 215.677734375Q158.2174108028412 216.0 157.8511407748561 216.0H148.23508882522583Q147.86985445022583 216.0 147.68723726272583 215.677734375Q147.50462007522583 215.35546875 147.50462007522583 215.119140625Q147.50462007522583 214.775390625 147.63352632522583 214.56256169080734Q147.76243257522583 214.34973275661469 148.17063570022583 214.32421875Q148.85813570022583 214.28125 149.6329094171524 213.92810451984406Q150.40768313407898 213.5749590396881 150.40768313407898 212.98951506614685V199.25841093063354Q150.40768313407898 198.86050554238832 150.2566244006157 198.2987567589833Q150.1055656671524 197.7370079755783 149.52683424949646 197.3120077252388Q148.94810283184052 196.8870074748993 147.67649507522583 196.8870074748993Q145.7214379310608 196.8870074748993 144.16517794132233 197.7792666554451Q142.60891795158386 198.6715258359909 141.65957581996918 199.48390245437622Q141.66360545158386 199.64638197422028 141.6656202673912 199.83034586906433Q141.66763508319855 200.0143097639084 141.66763508319855 200.18081891536713V212.28053069114685Q141.66763508319855 213.2915388207103 142.11141580343246 213.69172953866249Q142.55519652366638 214.09192025661469 143.1708522439003 214.16711556911469Q143.78650796413422 214.24231088161469 144.32361733913422 214.32421875Q144.68885171413422 214.3671875 144.86072671413422 214.5068359375Q145.03260171413422 214.646484375 145.03260171413422 215.119140625Q145.03260171413422 215.35546875 144.84998452663422 215.677734375Q144.66736733913422 216.0 144.30116893743212 216.0H134.9401854276657Q134.5749510526657 216.0 134.3923338651657 215.677734375Q134.2097166776657 215.35546875 134.2097166776657 215.119140625Q134.2097166776657 214.775390625 134.3386229276657 214.56256169080734Q134.4675291776657 214.34973275661469 134.8757323026657 214.32421875Q135.5632323026657 214.28125 136.35412454605103 213.92810451984406Q137.14501678943634 213.5749590396881 137.14501678943634 212.98951506614685V199.25841093063354Q137.14501678943634 198.86050554238832 136.98589879274368 198.2987567589833Q136.82678079605103 197.7370079755783 136.23797529935837 197.3120077252388Q135.6491698026657 196.8870074748993 134.37569709257644 196.8870074748993Q133.03747153282166 196.8870074748993 131.88337022066116 197.3274371623993Q130.72926890850067 197.7678668498993 129.84372228384018 198.3909137248993Q128.9581756591797 199.0139605998993 128.352583527565 199.5725543498993V212.28053069114685Q128.352583527565 213.63057297275913 129.13809943199158 213.9364419271869Q129.92361533641815 214.24231088161469 130.71853721141815 214.32421875Q131.16970908641815 214.3671875 131.33084189891815 214.49609375Q131.49197471141815 214.625 131.49197471141815 215.119140625Q131.49197471141815 215.35546875 131.30935752391815 215.677734375Q131.12674033641815 216.0 130.76150596141815 216.0Z M161.94559885848028 216.0Q161.57949268817902 216.0 161.39687550067902 215.677734375Q161.21425831317902 215.35546875 161.21425831317902 215.119140625Q161.21425831317902 214.41015625 161.92324268817902 214.32421875Q162.71816456317902 214.24231088161469 163.52650105953217 213.96043182313443Q164.33483755588531 213.67855276465417 164.33483755588531 212.98951506614685V187.27271819114685Q164.33483755588531 185.94068694114685 163.77624380588531 185.45057594776154Q163.21765005588531 184.96046495437622 162.46569693088531 184.8570727109909Q161.71374380588531 184.7536804676056 161.13366568088531 184.6032898426056Q160.91882193088531 184.4958679676056 160.76843130588531 184.3239929676056Q160.61804068088531 184.1521179676056 160.61804068088531 183.7439148426056Q160.61804068088531 183.4861023426056 160.74694693088531 183.1443061033885Q160.87585318088531 182.80250986417136 161.13366568088531 182.78114759922028Q163.4513477087021 182.64015245437622 165.32254511117935 182.61060881614685Q167.19374251365662 182.58106517791748 168.19010400772095 182.56361043453217Q168.36197900772095 182.56361043453217 168.58085238933563 182.7375002503395Q168.79972577095032 182.91139006614685 168.83463525772095 183.42701506614685V205.85935401916504L176.62542510032654 197.91015625Q176.92351293563843 197.6864926815033 176.92351293563843 197.4831621646881Q176.92351293563843 197.0360199213028 175.9426228404045 196.8070724606514Q174.9617327451706 196.578125 174.13726723194122 196.53515625Q173.72503447532654 196.4921875 173.59814304113388 196.2236328125Q173.47125160694122 195.955078125 173.47125160694122 195.611328125Q173.47125160694122 195.375 173.65386879444122 195.009765625Q173.83648598194122 194.64453125 174.20172035694122 194.64453125H183.1468487352717Q183.51257693767548 194.64453125 183.69519412517548 195.009765625Q183.87781131267548 195.375 183.87781131267548 195.611328125Q183.87781131267548 195.998046875 183.70593631267548 196.2666015625Q183.53406131267548 196.53515625 183.16882693767548 196.53515625Q182.12012219429016 196.53515625 181.03985899686813 197.12193644046783Q179.9595957994461 197.70871663093567 179.1472191810608 198.33176350593567L175.2692790031433 202.3895959854126Q175.74732208251953 203.25840842723846 176.47107827663422 204.54881763458252Q177.1948344707489 205.83922684192657 178.07098561525345 207.31626188755035Q178.947136759758 208.79329693317413 179.88706243038177 210.22131878137589Q180.82698810100555 211.64934062957764 181.71588575839996 212.8108330965042Q182.22077906131744 213.47956311702728 182.78543823957443 213.89181685447693Q183.35009741783142 214.30407059192657 183.93556237220764 214.32421875Q184.30079674720764 214.33227801322937 184.47267174720764 214.48938119411469Q184.64454674720764 214.646484375 184.64454674720764 215.119140625Q184.64454674720764 215.35546875 184.46192955970764 215.677734375Q184.27931237220764 216.0 183.91407799720764 216.0H177.69820272922516Q177.23093330860138 215.2843555212021 176.64683604240417 214.27058124542236Q176.06273877620697 213.25680696964264 175.42156904935837 212.0906062722206Q174.78039932250977 210.92440557479858 174.1419125199318 209.73671001195908Q173.50342571735382 208.54901444911957 172.93610459566116 207.46874076128006Q172.3687834739685 206.38846707344055 171.9216412305832 205.55460608005524L168.83463525772095 208.66040301322937V212.28053069114685Q168.83463525772095 213.63135290145874 169.6100770831108 213.93481707572937Q170.38551890850067 214.23828125 171.18044078350067 214.32421875Q171.63161265850067 214.3671875 171.79274547100067 214.49609375Q171.95387828350067 214.625 171.95387828350067 215.119140625Q171.95387828350067 215.35546875 171.77126109600067 215.677734375Q171.58864390850067 216.0 171.22340953350067 216.0Z M188.4404296875 210.78332650661469Q188.4404296875 208.65234375 189.59858161211014 207.2666015625Q190.75673353672028 205.880859375 192.64267128705978 205.0537109375Q194.5286090373993 204.2265625 196.77172189950943 203.78814762830734Q199.01483476161957 203.34973275661469 201.16730189323425 203.13488900661469V199.78196930885315Q201.16730189323425 198.87824738025665 200.7678261399269 198.05379235744476Q200.36835038661957 197.22933733463287 199.45460683107376 196.69896149635315Q198.54086327552795 196.16858565807343 196.96315038204193 196.16858565807343Q196.01111483573914 196.16858565807343 195.55188369750977 196.28674972057343Q195.0926525592804 196.40491378307343 194.82544457912445 196.53382003307343L192.09016394615173 201.83377957344055Q190.80241668224335 201.83377957344055 189.82084798812866 201.22951316833496Q188.83927929401398 200.62524676322937 188.83927929401398 199.24085128307343Q188.83927929401398 198.19346177577972 189.528146982193 197.28775650262833Q190.217014670372 196.38205122947693 191.4510509967804 195.691200196743Q192.68508732318878 195.0003491640091 194.33335024118423 194.60759645700455Q195.9816131591797 194.21484375 197.90443325042725 194.21484375Q200.33619725704193 194.21484375 201.88174653053284 194.7881988286972Q203.42729580402374 195.3615539073944 204.2759495973587 196.3330380320549Q205.12460339069366 197.3045221567154 205.45225584506989 198.5116662979126Q205.7799082994461 199.7188104391098 205.7799082994461 201.0078729391098V211.69372951984406Q205.7799082994461 212.53162014484406 206.0162364244461 213.23186665773392Q206.2525645494461 213.93211317062378 206.5963145494461 213.93211317062378Q206.8970957994461 213.93211317062378 207.2032743692398 213.87973845005035Q207.5094529390335 213.82736372947693 207.8478161096573 213.74009001255035Q208.2130504846573 213.65281629562378 208.43997263908386 214.01939737796783Q208.66689479351044 214.3859784603119 208.66689479351044 214.72033298015594Q208.66689479351044 214.96472036838531 208.53798854351044 215.07214224338531Q208.0196911096573 215.44810831546783 206.78564429283142 215.94024461507797Q205.55159747600555 216.4323809146881 203.97778832912445 216.4323809146881Q202.69538593292236 216.4323809146881 202.12268847227097 215.94360613822937Q201.54999101161957 215.45483136177063 201.54999101161957 213.83275055885315V213.42321121692657Q200.15350663661957 214.92041540145874 198.46897703409195 215.6918380856514Q196.78444743156433 216.46326076984406 194.52858805656433 216.46326076984406Q193.23952555656433 216.46326076984406 191.82490783929825 215.9026522040367Q190.41029012203217 215.34204363822937 189.42535990476608 214.09393507242203Q188.4404296875 212.84582650661469 188.4404296875 210.78332650661469ZM193.45451617240906 210.65575647354126Q193.45451617240906 211.95688688755035 194.25748682022095 212.9512020945549Q195.06045746803284 213.94551730155945 196.47842621803284 213.94551730155945Q198.18506634235382 213.94551730155945 199.36735409498215 213.35201406478882Q200.54964184761047 212.7585108280182 201.14984714984894 212.1381573677063V204.69654631614685Q198.99474954605103 205.01611852645874 197.254536151886 205.55188119411469Q195.51432275772095 206.08764386177063 194.484419465065 207.25451266765594Q193.45451617240906 208.42138147354126 193.45451617240906 210.65575647354126Z M213.26841032505035 216.0Q212.90317595005035 216.0 212.72055876255035 215.677734375Q212.53794157505035 215.35546875 212.53794157505035 215.119140625Q212.53794157505035 214.41015625 213.24692595005035 214.32421875Q214.12778532505035 214.24079976975918 214.93344938755035 213.9592607114464Q215.73911345005035 213.67772165313363 215.73911345005035 212.98951506614685V199.28515625Q215.73911345005035 197.953125 215.18051970005035 197.458984375Q214.62192595005035 196.96484375 213.86997282505035 196.857421875Q213.11801970005035 196.75 212.53794157505035 196.599609375Q212.32309782505035 196.4921875 212.17270720005035 196.3203125Q212.02231657505035 196.1484375 212.02231657505035 195.740234375Q212.02231657505035 195.48129732664242 212.16196501255035 195.15762601619542Q212.30161345005035 194.83395470574845 212.53794157505035 194.81237661838531Q214.8596532344818 194.68347036838531 216.62745839357376 194.5901522040367Q218.3952635526657 194.4968340396881 219.39162504673004 194.4753496646881Q219.56350004673004 194.4753496646881 219.77834379673004 194.6472246646881Q219.99318754673004 194.8190996646881 220.03615629673004 195.3347246646881V198.68367767333984Q220.690083026886 197.57855808734894 221.54276645183563 196.56004410982132Q222.39544987678528 195.5415301322937 223.48648673295975 194.87818694114685Q224.57752358913422 194.21484375 225.9512083530426 194.21484375Q227.31814908981323 194.21484375 228.02378243207932 194.68817859888077Q228.7294157743454 195.16151344776154 228.98790687322617 195.88808866341907Q229.24639797210693 196.61466387907663 229.24639797210693 197.4093555212021Q229.24639797210693 198.278146982193 228.74151515960693 198.87906235456467Q228.23663234710693 199.47997772693634 227.56725519895554 199.79621988534927Q226.89787805080414 200.1124620437622 226.41983497142792 200.1124620437622L224.17330813407898 197.24823319911957Q223.46027314662933 197.24823319911957 222.70226508378983 197.78267014026642Q221.94425702095032 198.31710708141327 221.30307680368423 199.18589854240417Q220.66189658641815 200.05469000339508 220.2590593099594 201.03626918792725V212.28053069114685Q220.2590593099594 213.18322782109422 220.87337881326675 213.5925904730471Q221.4876983165741 214.001953125 222.36385995149612 214.12884455919266Q223.24002158641815 214.25573599338531 223.99063849449158 214.32421875Q224.44181036949158 214.3671875 224.60294318199158 214.49609375Q224.76407599449158 214.625 224.76407599449158 215.119140625Q224.76407599449158 215.35546875 224.58145880699158 215.677734375Q224.39884161949158 216.0 224.03360724449158 216.0Z" fill="#22323F" fill-rule="nonzero"/></g>
</svg>